HIERARCHY
ROOT root
{
	OFFSET	0	13.1	24.9
	CHANNELS 6  Xposition Yposition Zposition Xrotation Yrotation Zrotation
	JOINT spine_1
	{
		OFFSET	0	9.99999	0
		CHANNELS 3  Xrotation Yrotation Zrotation
		JOINT spine_2
		{
			OFFSET	0	112	-10
			CHANNELS 3  Xrotation Yrotation Zrotation
			JOINT spine_3
			{
				OFFSET	0	206.5	19.3
				CHANNELS 3  Xrotation Yrotation Zrotation
				JOINT spine_4
				{
					OFFSET	0	110.4	14.6
					CHANNELS 3  Xrotation Yrotation Zrotation
					JOINT neck_1
					{
						OFFSET	0	71.8	-50.3
						CHANNELS 3  Xrotation Yrotation Zrotation
						JOINT neck_2
						{
							OFFSET	0	86.2	-25.8
							CHANNELS 3  Xrotation Yrotation Zrotation
							JOINT head_ee
							{
								OFFSET	0	179.8	-8.7
								CHANNELS 3  Xrotation Yrotation Zrotation
								End Site
								{
									OFFSET	1	0	0
								}
							}
						}
					}
					JOINT left_clavicle
					{
						OFFSET	-43.2	22.4	-70.8
						CHANNELS 3  Xrotation Yrotation Zrotation
						JOINT left_shoulder
						{
							OFFSET	-93.9	-5.79999	48.7
							CHANNELS 3  Xrotation Yrotation Zrotation
							JOINT left_elbow
							{
								OFFSET	-291.4	-30.8	15.2
								CHANNELS 3  Xrotation Yrotation Zrotation
								JOINT left_lowarm_twist
								{
									OFFSET	-110.7	-3.89999	13.6
									CHANNELS 3  Xrotation Yrotation Zrotation
									JOINT left_hand
									{
										OFFSET	-110.7	-3.89999	13.6
										CHANNELS 3  Xrotation Yrotation Zrotation
										JOINT left_ee
										{
											OFFSET	-80.8	-5.10001	12.1
											CHANNELS 3  Xrotation Yrotation Zrotation
											End Site
											{
												OFFSET	1	0	0
											}
										}
									}
								}
							}
						}
					}
					JOINT right_clavicle
					{
						OFFSET	43.2	22.4	-70.8
						CHANNELS 3  Xrotation Yrotation Zrotation
						JOINT right_shoulder
						{
							OFFSET	93.9	-5.79999	48.7
							CHANNELS 3  Xrotation Yrotation Zrotation
							JOINT right_elbow
							{
								OFFSET	291.4	-30.8	15.2
								CHANNELS 3  Xrotation Yrotation Zrotation
								JOINT right_lowarm_twist
								{
									OFFSET	110.7	-3.89999	13.6
									CHANNELS 3  Xrotation Yrotation Zrotation
									JOINT right_hand
									{
										OFFSET	110.7	-3.89999	13.6
										CHANNELS 3  Xrotation Yrotation Zrotation
										JOINT right_ee
										{
											OFFSET	80.8	-5.10001	12.1
											CHANNELS 3  Xrotation Yrotation Zrotation
											End Site
											{
												OFFSET	1	0	0
											}
										}
									}
								}
							}
						}
					}
				}
			}
		}
	}
	JOINT left_hip
	{
		OFFSET	-82.8	-127.5	0.300001
		CHANNELS 3  Xrotation Yrotation Zrotation
		JOINT left_knee
		{
			OFFSET	-28.2	-396.7	2.2
			CHANNELS 3  Xrotation Yrotation Zrotation
			JOINT left_ankle
			{
				OFFSET	-11.7	-411.3	35.4
				CHANNELS 3  Xrotation Yrotation Zrotation
				JOINT left_toes
				{
					OFFSET	0	-60	-88.6
					CHANNELS 3  Xrotation Yrotation Zrotation
					JOINT left_foot_ee
					{
						OFFSET	-22.5	-16.5	-42.2
						CHANNELS 3  Xrotation Yrotation Zrotation
						End Site
						{
							OFFSET	1	0	0
						}
					}
				}
			}
		}
	}
	JOINT right_hip
	{
		OFFSET	82.8	-127.5	0.300001
		CHANNELS 3  Xrotation Yrotation Zrotation
		JOINT right_knee
		{
			OFFSET	28.2	-396.7	2.2
			CHANNELS 3  Xrotation Yrotation Zrotation
			JOINT right_ankle
			{
				OFFSET	11.7	-411.3	35.4
				CHANNELS 3  Xrotation Yrotation Zrotation
				JOINT right_toes
				{
					OFFSET	0	-60	-88.6
					CHANNELS 3  Xrotation Yrotation Zrotation
					JOINT right_foot_ee
					{
						OFFSET	22.5	-16.5	-42.2
						CHANNELS 3  Xrotation Yrotation Zrotation
						End Site
						{
							OFFSET	1	0	0
						}
					}
				}
			}
		}
	}
}
MOTION
Frames: 10
Frame Time: 0.02
2800.94 716.97 -1473.77 41.1210980414 74.916822083 -43.9312222441 -3.14898 0.0019181 -0.400614 -3.14889 0.0274061 -0.39968 -3.14898 0.131781 -0.378325 -3.14917 0.070378 -0.394389 -4.94922 5.40669 2.9006 -4.9201 7.75652 3.88548 -0.0 0.0 -0.0 2.53889 -5.91119 4.42437 4.14863 -2.17436 66.2374 2.21465 -47.6439 0.977889 -66.1084 -6.0507 5.25039 0.253977 -10.8313 -2.89 -0.0 0.0 -0.0 3.78915 27.6815 -5.05629 -17.8835 24.7892 -69.9038 0.503908 14.016 -0.061944 7.86676 -0.210019 0.982159 5.36894 -16.8177 -44.7124 0.0 0.0 0.0 -34.4403 -8.15489 11.5815 -6.09134 0.202443 0.912484 11.293 22.9906 -1.65562 -28.1906 0.0 0.0 -0.0 0.0 -0.0 21.3674 29.2025 -1.52317 -2.87827 -0.107762 -0.428532 -23.4529 0.69931 -3.57519 -6.36719 0.0 0.0 0.0 0.0 0.0 
2773.69506733 717.893 -1478.92853902 43.7782170951 76.0631985926 -47.2225042077 -3.2085 -0.0606704 -0.404885 -3.20841 -0.0347838 -0.407925 -3.20804 0.0743765 -0.402593 -3.20827 0.00986167 -0.409286 -3.17097 4.84434 3.65091 -3.12946 5.9746 4.50102 -0.0 0.0 -0.0 2.1873 -5.08601 3.78648 1.84758 -2.55769 68.3956 2.22734 -47.8068 0.98728 -66.4617 -6.09554 5.25649 0.562234 -11.5312 -1.10933 -0.0 0.0 -0.0 3.92969 27.7709 -5.35184 -18.4197 25.4984 -67.5497 0.594007 16.3968 -0.0855817 9.04927 -0.229854 1.13191 4.90127 -17.1347 -40.6885 0.0 0.0 0.0 -31.533 -8.61156 11.7239 -12.3607 0.308435 1.8682 5.715 24.9155 -0.860191 -30.04 0.0 0.0 -0.0 0.0 -0.0 21.7987 29.5637 -1.99841 -7.22571 -0.229364 -1.08448 -19.6363 -5.2567 -2.95699 -0.108177 0.0 0.0 0.0 0.0 0.0 
2773.78044892 717.893 -1479.36067674 41.357532285 75.3927106914 -44.7247951422 -3.2085 -0.0606704 -0.404885 -3.20841 -0.0347838 -0.407925 -3.20804 0.0743765 -0.402593 -3.20827 0.00986167 -0.409286 -3.17097 4.84434 3.65091 -3.12946 5.9746 4.50102 -0.0 0.0 -0.0 2.1873 -5.08601 3.78648 1.84758 -2.55769 68.3956 2.22734 -47.8068 0.98728 -66.4617 -6.09554 5.25649 0.562234 -11.5312 -1.10933 -0.0 0.0 -0.0 3.92969 27.7709 -5.35184 -18.4197 25.4984 -67.5497 0.594007 16.3968 -0.0855817 9.04927 -0.229854 1.13191 4.90127 -17.1347 -40.6885 0.0 0.0 0.0 -31.533 -8.61156 11.7239 -12.3607 0.308435 1.8682 5.715 24.9155 -0.860191 -30.04 0.0 0.0 -0.0 0.0 -0.0 21.7987 29.5637 -1.99841 -7.22571 -0.229364 -1.08448 -19.6363 -5.2567 -2.95699 -0.108177 0.0 0.0 0.0 0.0 0.0 
2773.87264633 717.893 -1479.79123293 39.1561291476 74.6982374981 -42.4462805929 -3.2085 -0.0606704 -0.404885 -3.20841 -0.0347838 -0.407925 -3.20804 0.0743765 -0.402593 -3.20827 0.00986167 -0.409286 -3.17097 4.84434 3.65091 -3.12946 5.9746 4.50102 -0.0 0.0 -0.0 2.1873 -5.08601 3.78648 1.84758 -2.55769 68.3956 2.22734 -47.8068 0.98728 -66.4617 -6.09554 5.25649 0.562234 -11.5312 -1.10933 -0.0 0.0 -0.0 3.92969 27.7709 -5.35184 -18.4197 25.4984 -67.5497 0.594007 16.3968 -0.0855817 9.04927 -0.229854 1.13191 4.90127 -17.1347 -40.6885 0.0 0.0 0.0 -31.533 -8.61156 11.7239 -12.3607 0.308435 1.8682 5.715 24.9155 -0.860191 -30.04 0.0 0.0 -0.0 0.0 -0.0 21.7987 29.5637 -1.99841 -7.22571 -0.229364 -1.08448 -19.6363 -5.2567 -2.95699 -0.108177 0.0 0.0 0.0 0.0 0.0 
2773.98776376 717.893 -1480.28719591 36.8538716602 73.8690873051 -40.0546974618 -3.2085 -0.0606704 -0.404885 -3.20841 -0.0347838 -0.407925 -3.20804 0.0743765 -0.402593 -3.20827 0.00986167 -0.409286 -3.17097 4.84434 3.65091 -3.12946 5.9746 4.50102 -0.0 0.0 -0.0 2.1873 -5.08601 3.78648 1.84758 -2.55769 68.3956 2.22734 -47.8068 0.98728 -66.4617 -6.09554 5.25649 0.562234 -11.5312 -1.10933 -0.0 0.0 -0.0 3.92969 27.7709 -5.35184 -18.4197 25.4984 -67.5497 0.594007 16.3968 -0.0855817 9.04927 -0.229854 1.13191 4.90127 -17.1347 -40.6885 0.0 0.0 0.0 -31.533 -8.61156 11.7239 -12.3607 0.308435 1.8682 5.715 24.9155 -0.860191 -30.04 0.0 0.0 -0.0 0.0 -0.0 21.7987 29.5637 -1.99841 -7.22571 -0.229364 -1.08448 -19.6363 -5.2567 -2.95699 -0.108177 0.0 0.0 0.0 0.0 0.0 
2774.09178076 717.893 -1480.70325353 35.0952318721 73.1518491877 -38.220673772 -3.2085 -0.0606704 -0.404885 -3.20841 -0.0347838 -0.407925 -3.20804 0.0743765 -0.402593 -3.20827 0.00986167 -0.409286 -3.17097 4.84434 3.65091 -3.12946 5.9746 4.50102 -0.0 0.0 -0.0 2.1873 -5.08601 3.78648 1.84758 -2.55769 68.3956 2.22734 -47.8068 0.98728 -66.4617 -6.09554 5.25649 0.562234 -11.5312 -1.10933 -0.0 0.0 -0.0 3.92969 27.7709 -5.35184 -18.4197 25.4984 -67.5497 0.594007 16.3968 -0.0855817 9.04927 -0.229854 1.13191 4.90127 -17.1347 -40.6885 0.0 0.0 0.0 -31.533 -8.61156 11.7239 -12.3607 0.308435 1.8682 5.715 24.9155 -0.860191 -30.04 0.0 0.0 -0.0 0.0 -0.0 21.7987 29.5637 -1.99841 -7.22571 -0.229364 -1.08448 -19.6363 -5.2567 -2.95699 -0.108177 0.0 0.0 0.0 0.0 0.0 
2725.36451077 720.264 -1490.67401587 43.408571793 75.6087783653 -47.581108021 -3.63021 -0.0510884 -0.188516 -3.63019 -0.0389892 -0.191385 -3.63002 0.0144675 -0.194779 -3.63008 -0.0164758 -0.19462 -3.56062 5.70196 3.12914 -3.52085 7.98373 4.10256 -0.0 0.0 -0.0 1.89931 -3.1589 3.38217 -0.452524 -4.58115 70.4959 1.77365 -41.2992 0.668469 -68.393 -6.34113 5.28494 1.06972 -15.2057 0.713053 -0.0 0.0 -0.0 4.57972 25.9563 -6.95358 -16.0953 26.5373 -64.272 0.638805 17.5598 -0.0986641 9.55095 -0.237334 1.19555 4.599 -17.6409 -38.3064 0.0 0.0 0.0 -28.2317 -10.3575 9.99415 -20.0289 0.295295 3.04377 -11.1862 24.0835 1.73228 -32.6767 0.0 0.0 -0.0 0.0 -0.0 21.4247 28.9453 -1.43687 -15.5328 -0.322087 -2.35464 -14.8428 -9.46219 -2.22477 8.93565 -0.0 -0.0 0.0 0.0 0.0 
2725.46498941 720.264 -1491.11713525 42.5235371902 75.3627808322 -46.6669001196 -3.63021 -0.0510884 -0.188516 -3.63019 -0.0389892 -0.191385 -3.63002 0.0144675 -0.194779 -3.63008 -0.0164758 -0.19462 -3.56062 5.70196 3.12914 -3.52085 7.98373 4.10256 -0.0 0.0 -0.0 1.89931 -3.1589 3.38217 -0.452524 -4.58115 70.4959 1.77365 -41.2992 0.668469 -68.393 -6.34113 5.28494 1.06972 -15.2057 0.713053 -0.0 0.0 -0.0 4.57972 25.9563 -6.95358 -16.0953 26.5373 -64.272 0.638805 17.5598 -0.0986641 9.55095 -0.237334 1.19555 4.599 -17.6409 -38.3064 0.0 0.0 0.0 -28.2317 -10.3575 9.99415 -20.0289 0.295295 3.04377 -11.1862 24.0835 1.73228 -32.6767 0.0 0.0 -0.0 0.0 -0.0 21.4247 28.9453 -1.43687 -15.5328 -0.322087 -2.35464 -14.8428 -9.46219 -2.22477 8.93565 -0.0 -0.0 0.0 0.0 0.0 
2699.42788384 724.936 -1492.82646275 45.0076836269 75.6895958459 -49.3233678586 -3.7767 0.293705 0.00126674 -3.77675 0.293029 0.0199536 -3.77671 0.276336 0.099513 -3.77661 0.288584 0.0546217 -3.3193 5.76839 3.66899 -3.27152 7.66028 4.66037 -0.0 0.0 -0.0 1.92421 -2.61462 3.47964 -0.950424 -4.75889 71.578 1.46748 -36.0128 0.477016 -70.2872 -6.58268 5.30474 0.671602 -14.5236 -1.66189 -0.0 0.0 -0.0 5.19712 26.4276 -8.24745 -16.2581 28.6727 -62.3431 0.595092 16.4252 -0.0858885 8.91322 -0.227729 1.11466 4.68334 -16.253 -38.6746 0.0 0.0 0.0 -24.3409 -11.0552 10.2186 -27.5092 0.13138 4.17918 -24.4353 24.3386 3.81789 -37.7732 0.0 0.0 -0.0 0.0 -0.0 20.0947 28.5185 -1.89526 -16.9291 -0.319558 -2.56884 -11.6734 -10.1074 -1.74449 7.70319 -0.0 -0.0 0.0 0.0 0.0 
2670.40612091 730.147 -1495.25544043 60.5029593382 78.3359339345 -64.9676847329 -3.94277 0.370044 0.134446 -3.94283 0.360739 0.157721 -3.94186 0.302966 0.251435 -3.94179 0.338874 0.200432 -4.54545 5.49049 2.61138 -4.51695 8.09081 3.58461 -0.0 0.0 -0.0 1.61679 -2.15789 2.91654 -3.1211 -5.19916 73.3402 1.09659 -28.5107 0.278614 -71.9582 -6.79613 5.31553 0.422764 -14.0932 -3.14947 -0.0 0.0 -0.0 5.78863 26.6703 -9.51058 -12.8682 30.0694 -57.0461 0.561348 15.5401 -0.0765968 8.39034 -0.219183 1.04841 4.42234 -15.3968 -36.3584 0.0 0.0 0.0 -19.5187 -9.72543 7.84105 -36.6553 -0.267807 5.52435 -25.4931 25.4597 4.00581 -40.2415 0.0 0.0 -0.0 0.0 -0.0 18.8304 27.8954 -2.61351 -20.0542 -0.294991 -3.04765 -4.87527 -10.6846 -0.72136 13.1831 -0.0 -0.0 0.0 0.0 0.0 
